<?xml version="1.0" encoding="utf-8"?>
<!-- Generator: Adobe Illustrator 27.10.0, SVG Export Plug-In . SVG Version: 6.00 Build 0)  -->
<svg version="1.1" id="visual" xmlns="http://www.w3.org/2000/svg" xmlns:xlink="http://www.w3.org/1999/xlink" x="0px" y="0px"
	 viewBox="0 0 960 443" style="enable-background:new 0 0 960 443;" xml:space="preserve">
<style type="text/css">
	.st0{fill:#1F1F1F;}
	.st1{fill:#282828;}
</style>
<rect class="st0" width="960" height="444"/>
<path class="st1" d="M0,135.5l20-10.8c20-10.9,60-32.5,100-44.4c40-11.8,80-13.8,120-3.5c40,10.4,80,33,120,43.7s80,9.3,120,8.7
	c40-0.7,80-0.7,120,7.8s80,25.5,120,13.8c40-11.6,80-52,120-72.1c40-20.2,80-20.2,100-20.2h20v257h-20c-20,0-60,0-100,0s-80,0-120,0
	s-80,0-120,0s-80,0-120,0s-80,0-120,0s-80,0-120,0s-80,0-120,0s-80,0-100,0H0V135.5z"/>
<rect y="257" class="st1" width="961" height="212"/>
</svg>
