<svg width="179" height="200" viewBox="0 0 179 200" fill="none" xmlns="http://www.w3.org/2000/svg">
<g id="undraw_air_support_re_nybl 1">
<path id="Vector" d="M64.7514 105.555C64.7514 105.555 69.2018 110.152 69.597 112.744L65.7253 114.974L61.2568 107.145L58.9 96.6955C58.6786 96.474 58.5198 96.1978 58.4397 95.8951C58.3596 95.5923 58.3611 95.2738 58.4439 94.9718C58.5268 94.6698 58.6881 94.3951 58.9115 94.1756C59.1349 93.9561 59.4124 93.7996 59.7159 93.722C60.0194 93.6443 60.338 93.6484 60.6394 93.7336C60.9408 93.8189 61.2143 93.9824 61.4321 94.2074C61.6498 94.4325 61.8042 94.7112 61.8794 95.0152C61.9546 95.3192 61.948 95.6377 61.8603 95.9383L64.7514 105.555Z" fill="#FFB6B6"/>
<path id="Vector_2" d="M106.029 94.5307C105.953 94.227 105.958 93.9085 106.044 93.6075C106.131 93.3065 106.295 93.0338 106.521 92.8169C106.747 92.6001 107.027 92.4468 107.331 92.3728C107.635 92.2988 107.954 92.3066 108.254 92.3954C108.555 92.4842 108.826 92.6509 109.041 92.8786C109.256 93.1062 109.407 93.3867 109.479 93.6916C109.551 93.9964 109.54 94.3148 109.449 94.6144C109.358 94.9139 109.189 95.184 108.959 95.3972L106.216 105.752L101.46 113.41L97.6742 111.038C98.1653 108.463 102.783 104.033 102.783 104.033L106.029 94.5307Z" fill="#FFB6B6"/>
<path id="Vector_3" d="M35.5037 132.091C35.4758 125.988 37.8189 120.236 40.4232 114.824C43.1144 109.231 46.178 103.745 47.6987 97.6817C48.5868 94.3429 48.8028 90.8611 48.3342 87.4382C48.2423 86.8279 47.3147 87.0872 47.406 87.694C48.3386 93.8869 46.3228 100.055 43.8127 105.64C41.3236 111.179 38.2205 116.447 36.2785 122.223C35.1615 125.395 34.5745 128.728 34.5411 132.091C34.5455 132.215 34.5981 132.333 34.6878 132.42C34.7776 132.507 34.8976 132.555 35.0224 132.555C35.1472 132.555 35.2672 132.507 35.357 132.42C35.4468 132.333 35.4994 132.215 35.5037 132.091Z" fill="#E6E6E6"/>
<path id="Vector_4" d="M63.4775 134.138C63.2718 131.54 65.1064 129.373 67.2719 128.18C70.02 126.667 73.346 126.797 76.383 126.887C79.4985 127.011 82.619 126.863 85.7087 126.444C93.005 125.384 99.9478 122.616 105.971 118.366C111.995 114.115 116.929 108.503 120.372 101.985C123.229 96.579 125.239 90.3462 124.436 84.1728C124.339 83.4221 124.201 82.6774 124.022 81.9419C123.875 81.3405 122.947 81.5952 123.094 82.1977C124.589 88.3307 122.875 94.7546 120.157 100.291C117.658 105.366 114.25 109.941 110.102 113.788C105.757 117.817 100.667 120.958 95.118 123.036C92.2361 124.114 89.2551 124.905 86.2181 125.398C83.1399 125.874 80.0233 126.056 76.9107 125.94C73.8161 125.85 70.5364 125.687 67.6281 126.939C65.352 127.919 63.239 129.86 62.6526 132.341C62.5137 132.929 62.4672 133.536 62.515 134.138C62.5636 134.752 63.5265 134.757 63.4775 134.138Z" fill="#E6E6E6"/>
<path id="Vector_5" d="M161.51 45.1953C160.377 44.6853 159.264 44.1946 158.199 43.7423C158.038 43.675 157.878 43.6044 157.717 43.5371L157.698 43.5274C156.739 43.1169 155.777 42.7149 154.814 42.3214C154.14 42.0456 153.469 41.773 152.796 41.5067C152.532 41.3977 152.269 41.295 152.003 41.1924C151.576 41.0224 151.146 40.8556 150.72 40.6888C150.367 40.5509 150.011 40.4162 149.658 40.2815C149.25 40.1243 148.843 39.9736 148.438 39.8196C147.957 39.64 147.477 39.4625 146.998 39.2872C146.993 39.2846 146.987 39.2835 146.982 39.284C146.619 39.1493 146.257 39.0177 145.897 38.8894C141.017 37.1318 136.067 35.5601 131.177 34.2162C131 34.1681 130.824 34.12 130.648 34.0718C130.343 33.9885 130.038 33.9051 129.733 33.8217C129.194 33.6773 128.653 33.5362 128.11 33.3983C127.6 33.2636 127.086 33.1353 126.573 33.007C126.12 32.8947 125.668 32.7824 125.212 32.6734C124.766 32.5643 124.32 32.4585 123.871 32.3559C122.533 32.0415 121.198 31.7443 119.864 31.4642C119.855 31.4615 119.845 31.4605 119.835 31.461C119.514 31.3904 119.197 31.3231 118.876 31.2589C114.005 30.2614 109.051 29.4595 104.152 28.8726C103.911 28.8437 103.671 28.8148 103.43 28.7892H103.424C103.382 28.7828 103.337 28.7795 103.295 28.7763C102.891 28.7282 102.487 28.6833 102.083 28.6416C101.55 28.5839 101.021 28.5294 100.488 28.478C99.2271 28.353 97.9683 28.2439 96.7117 28.1509C96.394 28.1252 96.0796 28.1028 95.7652 28.0835C95.4026 28.0547 95.04 28.0322 94.6807 28.0098C94.3085 27.9841 93.9363 27.9616 93.5642 27.9424C93.423 27.9328 93.285 27.9264 93.147 27.9199C92.9738 27.9071 92.7973 27.9007 92.6241 27.8911C92.3642 27.8783 92.1043 27.8654 91.8444 27.8526C86.9547 27.6184 82.0041 27.5992 77.1272 27.7949C76.8577 27.8045 76.5882 27.8173 76.3155 27.8301H76.3058C76.1101 27.8398 75.9144 27.8462 75.7155 27.8558C75.6449 27.859 75.5711 27.8622 75.5005 27.8654C75.016 27.8911 74.5316 27.9167 74.0471 27.9456C73.5305 27.9745 73.0172 28.0065 72.5038 28.0418C72.1798 28.0643 71.8589 28.0867 71.5381 28.1092C71.3263 28.1252 71.1146 28.1413 70.8996 28.1573C69.5585 28.2599 68.2173 28.3786 66.8858 28.5133C66.4398 28.5582 65.9971 28.6031 65.5543 28.6512C65.3073 28.6769 65.0634 28.7026 64.8196 28.7314C59.9299 29.2831 54.976 30.0625 50.0991 31.044C49.7783 31.1082 49.4543 31.1755 49.1302 31.2429C49.1238 31.2429 49.1174 31.2461 49.1109 31.2461C49.0628 31.2557 49.0115 31.2653 48.9634 31.2782C48.6297 31.3455 48.2928 31.4161 47.9591 31.4898C47.5901 31.5668 47.2244 31.647 46.8554 31.7272C46.5474 31.7946 46.2394 31.8651 45.9314 31.9357C45.2062 32.0993 44.4779 32.2661 43.7528 32.4425C42.2769 32.7953 40.8021 33.1684 39.3284 33.5619C38.9947 33.6517 38.6578 33.7415 38.3209 33.8345C38.3184 33.8347 38.3161 33.8359 38.3145 33.8377C38.1412 33.8826 37.9648 33.9307 37.7915 33.9788C32.9146 35.3195 27.964 36.904 23.0743 38.6938C22.7149 38.8253 22.3556 38.9568 21.993 39.0947C21.9842 39.0953 21.9755 39.0975 21.9674 39.1011C20.9952 39.4636 20.0177 39.8356 19.0348 40.2173C18.6787 40.3585 18.3194 40.4996 17.96 40.6407C17.6135 40.7786 17.2638 40.9166 16.9173 41.0577C16.6125 41.1796 16.3109 41.3015 16.0061 41.4265C15.7622 41.526 15.5216 41.6254 15.2777 41.7248C14.4435 42.0712 13.6104 42.4219 12.7783 42.7769C12.2746 42.995 11.7677 43.2131 11.264 43.4344C11.1003 43.505 10.9335 43.5755 10.7699 43.6493C9.55705 44.185 8.45335 44.6821 7.39455 45.1729C6.26694 45.6942 5.31165 46.5265 4.64098 47.572C3.97031 48.6175 3.61213 49.8326 3.60857 51.0746V62.3937C3.60856 63.4021 3.84359 64.3967 4.29502 65.2985C4.74646 66.2004 5.40187 66.9846 6.20929 67.5891C7.01671 68.1937 7.95392 68.6018 8.94659 68.7812C9.93926 68.9606 10.9601 68.9063 11.9281 68.6226C12.4062 68.4814 12.8842 68.3403 13.3655 68.1992C13.7666 68.0805 14.1708 67.965 14.5719 67.8496C15.0114 67.7245 15.4478 67.5994 15.8873 67.4743C16.8916 67.1953 17.9023 66.9162 18.9129 66.6468C19.3846 66.5217 19.8562 66.3966 20.3279 66.2715C21.069 66.0759 21.8102 65.8866 22.5513 65.6974C22.7567 65.6461 22.962 65.5947 23.1673 65.5434C26.3918 64.7351 29.6324 63.9846 32.8473 63.3046C33.1777 63.234 33.5082 63.1667 33.8355 63.0993C35.1862 62.8171 36.5295 62.5498 37.8653 62.2975L38.8278 62.1146H38.8375C39.1519 62.0537 39.4663 61.996 39.7808 61.9382C40.6599 61.7779 41.5443 61.6218 42.4341 61.4699C42.9443 61.3801 43.4576 61.2935 43.971 61.2101C44.0223 61.2005 44.0737 61.1909 44.125 61.1845C45.0105 61.0369 45.8982 60.8948 46.788 60.7579C47.3912 60.6649 47.9976 60.5719 48.604 60.4853C49.1206 60.4083 49.6371 60.3345 50.1537 60.2608C55.0498 59.5744 59.994 59.0259 64.8517 58.641C65.272 58.6057 65.6923 58.5736 66.1126 58.5416C67.7425 58.4197 69.3852 58.3106 71.0312 58.2208C73.0653 58.1118 75.1059 58.0252 77.1368 57.9642C82.0137 57.8135 86.9579 57.8135 91.8316 57.9642C93.8658 58.0252 95.9063 58.1118 97.9405 58.2208C99.5864 58.3106 101.229 58.4197 102.859 58.5416C103.279 58.5736 103.7 58.6057 104.12 58.641C108.974 59.0259 113.919 59.5711 118.821 60.2608C119.055 60.2928 119.286 60.3281 119.521 60.3602C119.604 60.373 119.684 60.3826 119.768 60.3955C120.124 60.4468 120.48 60.5013 120.836 60.5526C122.174 60.7515 123.511 60.9621 124.847 61.1845C125.19 61.239 125.533 61.2968 125.873 61.3545C126.608 61.4796 127.34 61.6068 128.068 61.7362C128.491 61.8132 128.912 61.8901 129.332 61.9671C129.598 62.0152 129.868 62.0633 130.134 62.1147C130.458 62.1756 130.782 62.2365 131.103 62.2975C131.633 62.3969 132.162 62.4996 132.695 62.6054C133.028 62.6728 133.365 62.7369 133.702 62.8075C137.292 63.5291 140.918 64.3406 144.527 65.2259C144.903 65.3189 145.278 65.4119 145.654 65.5049C145.705 65.5178 145.753 65.5306 145.804 65.5434C146.193 65.6397 146.581 65.7391 146.969 65.8385C147.524 65.9796 148.08 66.124 148.637 66.2715C149.109 66.3934 149.581 66.5185 150.052 66.6468C151.509 67.0349 152.966 67.439 154.413 67.8528C155.295 68.1062 156.173 68.3628 157.047 68.6226H157.053C157.401 68.7257 157.758 68.7986 158.118 68.8407C158.374 68.8727 158.631 68.8888 158.888 68.8888C160.608 68.8852 162.257 68.199 163.471 66.9811C164.685 65.7632 165.365 64.1132 165.363 62.3937V51.1259C165.36 49.8715 164.995 48.6447 164.311 47.5927C163.628 46.5407 162.655 45.7083 161.51 45.1953Z" fill="#6C63FF"/>
<path id="Vector_6" d="M22.8658 39.2135C22.74 39.1263 22.5953 39.0701 22.4437 39.0494C22.292 39.0288 22.1376 39.0444 21.9931 39.0948C21.9842 39.0954 21.9755 39.0976 21.9674 39.1012C20.9952 39.4636 20.0177 39.8357 19.0349 40.2174C18.6787 40.3585 18.3194 40.4996 17.96 40.6408C17.6135 40.7787 17.2638 40.9166 16.9173 41.0577C16.6125 41.1796 16.3109 41.3015 16.0061 41.4266C15.7622 41.526 15.5216 41.6255 15.2778 41.7249C14.4436 42.0713 13.6104 42.422 12.7784 42.7769C12.2746 42.995 11.7677 43.2132 11.264 43.4345C11.0885 43.5109 10.9391 43.6369 10.8342 43.797C10.7294 43.9571 10.6735 44.1444 10.6736 44.3358V67.6764C10.673 67.8304 10.7087 67.9824 10.7778 68.1201C10.8469 68.2577 10.9475 68.3772 11.0715 68.4687C11.1502 68.5264 11.2366 68.5728 11.3281 68.6066C11.5217 68.6746 11.7319 68.6791 11.9281 68.6194L13.3623 68.196C13.7634 68.0806 14.1644 67.9651 14.5655 67.8496C15.0051 67.7245 15.4446 67.5994 15.8874 67.4743C16.8916 67.1953 17.9023 66.9163 18.913 66.6468C19.3846 66.5185 19.8563 66.3934 20.3279 66.2716C21.0691 66.0759 21.8102 65.8867 22.5514 65.6974C22.7343 65.6507 22.9002 65.5528 23.0294 65.4152L23.0326 65.412C23.1974 65.2313 23.2889 64.9957 23.2893 64.7512V40.0217C23.2894 39.8628 23.2509 39.7062 23.1772 39.5654C23.1034 39.4246 22.9965 39.3039 22.8658 39.2135Z" fill="#3F3D56"/>
<path id="Vector_7" d="M49.9259 31.4449C49.8164 31.3547 49.6882 31.2898 49.5507 31.2548C49.4131 31.2199 49.2695 31.2158 49.1302 31.2429C49.1238 31.2429 49.1174 31.2461 49.1109 31.2461C49.0628 31.2557 49.0115 31.2653 48.9634 31.2782C48.6297 31.3455 48.2928 31.4161 47.9591 31.4898C47.5901 31.5668 47.2244 31.647 46.8554 31.7272C46.5474 31.7946 46.2394 31.8651 45.9314 31.9357C45.2062 32.0993 44.4779 32.266 43.7528 32.4425C42.2737 32.7953 40.7989 33.1684 39.3284 33.5619C39.0203 33.642 38.7091 33.7254 38.4011 33.8088C38.3739 33.8159 38.3471 33.8245 38.3209 33.8345C38.3184 33.8347 38.3161 33.8359 38.3145 33.8377C38.1273 33.9084 37.9661 34.0343 37.852 34.1987C37.738 34.3631 37.6766 34.5582 37.676 34.7582V61.1524C37.6757 61.2963 37.7071 61.4384 37.7681 61.5687C37.8291 61.699 37.9182 61.8143 38.0289 61.9062C38.1049 61.9696 38.1904 62.0204 38.2824 62.0569C38.4005 62.1053 38.5269 62.1304 38.6546 62.1307C38.7127 62.1301 38.7706 62.1247 38.8278 62.1146H38.8375C39.1519 62.0537 39.4663 61.996 39.7807 61.9382C40.6599 61.7779 41.5443 61.6218 42.4341 61.4699C42.9443 61.3801 43.4576 61.2935 43.971 61.2101C44.0223 61.2005 44.0737 61.1909 44.125 61.1845C45.0105 61.0369 45.8982 60.8948 46.788 60.7579C47.3912 60.6649 47.9976 60.5719 48.604 60.4853C48.8864 60.4404 49.1687 60.4019 49.451 60.3602C49.638 60.3343 49.8132 60.254 49.9548 60.1292C50.0602 60.0373 50.1448 59.9239 50.2029 59.7967C50.261 59.6695 50.2912 59.5314 50.2917 59.3915V32.2083C50.2918 32.0618 50.259 31.9172 50.1956 31.785C50.1323 31.6529 50.0402 31.5367 49.9259 31.4449Z" fill="#3F3D56"/>
<path id="Vector_8" d="M76.9893 28.1028C76.8073 27.9299 76.5665 27.8324 76.3155 27.8301H76.2674C76.0845 27.8398 75.8984 27.8462 75.7155 27.8558C75.6449 27.859 75.5711 27.8622 75.5005 27.8654C75.0161 27.8911 74.5316 27.9167 74.0471 27.9456C73.5306 27.9745 73.0172 28.0066 72.5038 28.0418C72.1798 28.0643 71.8589 28.0867 71.5381 28.1092C71.3263 28.1252 71.1146 28.1413 70.8996 28.1573C69.5585 28.2599 68.2173 28.3786 66.8858 28.5133C66.4399 28.5582 65.9971 28.6031 65.5543 28.6512C65.3132 28.6772 65.0902 28.7916 64.9285 28.9722C64.7667 29.1529 64.6776 29.3871 64.6784 29.6295V57.5953C64.6782 57.7299 64.706 57.863 64.7601 57.9861C64.8143 58.1093 64.8935 58.2198 64.9928 58.3106C65.0526 58.3671 65.1195 58.4156 65.1918 58.4549C65.3356 58.5327 65.4966 58.5735 65.6602 58.5736C65.6827 58.5736 65.7083 58.5704 65.734 58.5704C65.8591 58.5608 65.9875 58.5512 66.1126 58.5415C67.7425 58.4196 69.3852 58.3106 71.0312 58.2208C72.8054 58.1214 74.5797 58.0444 76.3444 57.9866C76.5353 57.9837 76.7209 57.9234 76.877 57.8134C77.0064 57.7229 77.1119 57.6024 77.1846 57.4622C77.2572 57.322 77.2948 57.1663 77.2941 57.0084V28.8148C77.2946 28.6816 77.2679 28.5497 77.2155 28.4272C77.163 28.3048 77.086 28.1943 76.9893 28.1028Z" fill="#3F3D56"/>
<path id="Vector_9" d="M103.43 28.7892H103.424C103.382 28.7828 103.337 28.7796 103.295 28.7764C102.891 28.7283 102.487 28.6834 102.083 28.6417C101.55 28.5839 101.021 28.5294 100.488 28.4781C99.2271 28.353 97.9683 28.2439 96.7116 28.1509C96.394 28.1253 96.0796 28.1028 95.7651 28.0836C95.4026 28.0547 95.04 28.0323 94.6807 28.0098C94.3085 27.9841 93.9363 27.9617 93.5641 27.9424C93.423 27.9328 93.285 27.9264 93.1471 27.92C92.9995 27.9104 92.8551 27.9007 92.7107 27.8943C92.6819 27.8917 92.653 27.8906 92.6241 27.8911C92.3851 27.8982 92.1574 27.9943 91.9856 28.1605C91.888 28.2523 91.8103 28.3632 91.7573 28.4862C91.7043 28.6092 91.6772 28.7419 91.6776 28.8758V57.0084C91.6768 57.1667 91.7146 57.3227 91.7879 57.4631C91.8611 57.6034 91.9675 57.7237 92.0979 57.8135C92.2528 57.9234 92.4374 57.9838 92.6273 57.9867C94.3919 58.0444 96.1662 58.1214 97.9405 58.2208C99.5864 58.3106 101.229 58.4197 102.859 58.5416C102.984 58.5512 103.113 58.5608 103.238 58.5704C103.263 58.5704 103.286 58.5737 103.311 58.5737C103.475 58.5735 103.636 58.5328 103.78 58.455C103.852 58.4157 103.919 58.3671 103.979 58.3106C104.078 58.2194 104.156 58.1088 104.211 57.9857C104.265 57.8627 104.293 57.7298 104.293 57.5954V29.7643C104.292 29.5247 104.204 29.2935 104.046 29.1141C103.887 28.9347 103.668 28.8192 103.43 28.7892Z" fill="#3F3D56"/>
<path id="Vector_10" d="M130.648 34.0719C130.622 34.0619 130.597 34.0534 130.571 34.0462C130.291 33.9693 130.012 33.8955 129.733 33.8217C129.194 33.6774 128.653 33.5363 128.11 33.3983C127.599 33.2636 127.086 33.1353 126.573 33.007C126.12 32.8948 125.668 32.7825 125.212 32.6734C124.766 32.5644 124.32 32.4586 123.871 32.3559C122.533 32.0416 121.198 31.7443 119.864 31.4642C119.855 31.4616 119.845 31.4605 119.835 31.461C119.697 31.4352 119.554 31.4398 119.418 31.4748C119.282 31.5097 119.155 31.5739 119.046 31.6631C118.931 31.7548 118.839 31.8711 118.776 32.0032C118.713 32.1353 118.68 32.28 118.68 32.4265V59.3916C118.68 59.5317 118.711 59.6702 118.77 59.7975C118.828 59.9248 118.914 60.038 119.02 60.1293C119.16 60.254 119.335 60.3344 119.521 60.3602C119.604 60.373 119.684 60.3827 119.768 60.3955C120.124 60.4468 120.48 60.4981 120.836 60.5527C122.174 60.7515 123.511 60.9622 124.847 61.1845C125.19 61.2391 125.533 61.2968 125.873 61.3545C126.608 61.4796 127.34 61.6069 128.068 61.7362C128.491 61.8132 128.912 61.8902 129.332 61.9672C129.598 62.0153 129.868 62.0634 130.134 62.1147C130.195 62.1248 130.256 62.1302 130.317 62.1307C130.445 62.1307 130.571 62.1057 130.689 62.057C130.782 62.0212 130.867 61.9703 130.943 61.9062C131.053 61.8143 131.143 61.6991 131.204 61.5688C131.265 61.4385 131.296 61.2963 131.296 61.1525V34.9956C131.295 34.7938 131.233 34.597 131.117 34.4318C131.001 34.2666 130.837 34.141 130.648 34.0719Z" fill="#3F3D56"/>
<path id="Vector_11" d="M157.717 43.5371L157.698 43.5275C156.739 43.1169 155.777 42.7149 154.814 42.3214C154.14 42.0456 153.469 41.773 152.796 41.5068C152.532 41.3977 152.269 41.2951 152.003 41.1924C151.576 41.0224 151.146 40.8556 150.72 40.6889C150.367 40.5509 150.011 40.4162 149.658 40.2815C149.25 40.1243 148.843 39.9736 148.438 39.8196C147.957 39.64 147.477 39.4625 146.998 39.2872C146.993 39.2846 146.987 39.2835 146.982 39.284C146.836 39.2316 146.68 39.2154 146.527 39.2366C146.374 39.2578 146.228 39.3159 146.103 39.4059C145.973 39.4963 145.867 39.6167 145.794 39.7569C145.721 39.897 145.682 40.0528 145.682 40.2109V64.7512C145.682 64.9549 145.746 65.1534 145.865 65.3189C145.888 65.3513 145.913 65.3823 145.939 65.4119L145.942 65.4151C146.071 65.5534 146.237 65.6514 146.42 65.6974C146.603 65.7423 146.786 65.7904 146.969 65.8385C147.524 65.9796 148.08 66.124 148.637 66.2715C149.109 66.3934 149.581 66.5185 150.052 66.6468C151.509 67.0349 152.966 67.439 154.413 67.8528C155.295 68.1062 156.173 68.3628 157.047 68.6226H157.053C157.142 68.6479 157.234 68.6609 157.326 68.6611C157.434 68.6607 157.541 68.6423 157.644 68.6065C157.736 68.5741 157.822 68.5275 157.9 68.4686C158.023 68.3765 158.123 68.2568 158.191 68.1193C158.26 67.9817 158.295 67.8301 158.295 67.6764V44.432C158.295 44.243 158.241 44.0579 158.138 43.8991C158.036 43.7404 157.89 43.6146 157.717 43.5371Z" fill="#3F3D56"/>
<path id="Vector_12" d="M13.3871 68.215C17.5652 71.0295 21.9278 73.5602 26.3242 76.0154C31.0274 78.6419 35.7798 81.1793 40.4839 83.8043C45.2163 86.4451 49.9068 89.1711 54.4315 92.157C58.8312 95.0037 62.991 98.2049 66.8694 101.729C70.5425 105.127 73.8693 108.926 76.4846 113.203C76.7965 113.713 77.0979 114.229 77.3889 114.752C77.6908 115.292 78.5225 114.808 78.22 114.266C75.7292 109.906 72.6281 105.923 69.0108 102.44C65.2281 98.7985 61.1327 95.4965 56.7718 92.572C52.2768 89.4961 47.5908 86.7088 42.8509 84.0297C38.1248 81.3583 33.3373 78.7978 28.5864 76.1713C24.1142 73.6989 19.6644 71.1723 15.3805 68.3829C14.8754 68.0539 14.3728 67.721 13.8729 67.3841C13.3578 67.0372 12.8755 67.8704 13.3871 68.215Z" fill="#3F3D56"/>
<path id="Vector_13" d="M29.6267 56.9234C31.6285 61.4331 34.088 65.7255 36.9665 69.7332C39.9123 73.8375 43.0633 77.7909 46.4073 81.5781C49.7524 85.4305 53.1977 89.1942 56.567 93.0252C59.8979 96.8127 63.1638 100.667 66.1463 104.737C69.106 108.699 71.6765 112.937 73.822 117.393C74.0817 117.945 74.3326 118.501 74.575 119.061C74.8206 119.628 75.6501 119.139 75.4061 118.576C73.4043 114.066 70.9448 109.774 68.0663 105.766C65.1205 101.662 61.9695 97.7083 58.6255 93.9211C55.2804 90.0687 51.8351 86.3049 48.4658 82.4739C45.1349 78.6865 41.869 74.8322 38.8865 70.7617C35.9268 66.7999 33.3563 62.5618 31.2108 58.1065C30.9511 57.5542 30.7002 56.9979 30.4578 56.4377C30.2122 55.871 29.3827 56.3604 29.6267 56.9234Z" fill="#3F3D56"/>
<path id="Vector_14" d="M147.287 62.6614C143.616 66.1633 139.728 69.4307 135.646 72.4443C131.411 75.631 127.061 78.6608 122.732 81.7183C118.411 84.7709 114.105 87.8503 109.955 91.1349C105.951 94.24 102.191 97.6473 98.7075 101.327C95.4568 104.831 92.5432 108.69 90.3592 112.952C90.0966 113.464 89.8448 113.982 89.604 114.505C89.3463 115.064 90.1757 115.553 90.4352 114.991C92.4673 110.707 95.1132 106.742 98.2895 103.22C101.648 99.4969 105.309 96.0576 109.235 92.9377C113.314 89.6276 117.574 86.5486 121.858 83.5114C126.19 80.4403 130.556 77.4154 134.822 74.253C138.944 71.2566 142.894 68.0311 146.654 64.5919C147.096 64.1798 147.534 63.7631 147.967 63.3418C148.412 62.9094 147.731 62.2294 147.287 62.6614Z" fill="#3F3D56"/>
<path id="Vector_15" d="M137.366 53.804C135.364 58.3136 132.905 62.606 130.026 66.6137C127.078 70.7166 123.924 74.667 120.575 78.4497C117.226 82.2993 113.781 86.0629 110.414 89.8962C107.085 93.686 103.829 97.5475 100.847 101.618C97.8869 105.58 95.3164 109.818 93.1709 114.273C92.9112 114.826 92.6603 115.382 92.4179 115.942C92.1741 116.504 93.0031 116.995 93.249 116.428C95.2509 111.918 97.7104 107.626 100.589 103.618C103.537 99.515 106.691 95.5646 110.041 91.782C113.389 87.9323 116.835 84.1688 120.202 80.3354C123.53 76.5456 126.786 72.6841 129.769 68.6136C132.728 64.6518 135.299 60.4138 137.444 55.9584C137.704 55.4061 137.955 54.8498 138.197 54.2896C138.441 53.7272 137.612 53.2366 137.366 53.804Z" fill="#3F3D56"/>
<path id="Vector_16" d="M66.3089 175.974L66.9156 178.078L75.3224 176.74L74.427 173.635L66.3089 175.974Z" fill="#FFB6B6"/>
<path id="Vector_17" d="M64.0921 176.532L65.9576 183.003L66.0394 182.979C66.7075 182.786 67.2717 182.336 67.608 181.728C67.9443 181.12 68.0251 180.403 67.8326 179.735L68.3887 178.294L66.856 176.348L66.6932 175.783L64.0921 176.532Z" fill="#2F2E41"/>
<path id="Vector_18" d="M102.405 186.309L104.542 185.828L103.706 177.359L100.552 178.068L102.405 186.309Z" fill="#FFB6B6"/>
<path id="Vector_19" d="M102.207 188.708L108.779 187.232L108.76 187.148C108.608 186.47 108.192 185.88 107.605 185.509C107.017 185.137 106.306 185.014 105.628 185.166L104.222 184.525L102.187 185.939L101.614 186.068L102.207 188.708Z" fill="#2F2E41"/>
<path id="Vector_20" d="M95.8636 140.951L105.541 180.646L100.807 181.065L95.5621 167.781L87.4656 152.145L88.1973 169.991L73.1339 178.798L69.594 173.95L81.6362 167.476L76.3758 143.857L77.7759 140.951L95.8636 140.951Z" fill="#2F2E41"/>
<path id="Vector_21" d="M76.475 144.427C74.9062 142.231 77.8084 138.616 78.1642 137.851C77.7417 137.714 77.3797 137.435 77.14 137.061C76.9002 136.687 76.7976 136.242 76.8495 135.801L77.0029 134.497L77.1628 133.218L76.0173 132.073L76.014 132.045L75.3548 126.278L74.3963 122.448C74.0351 121 74.0659 119.482 74.4855 118.05C74.905 116.618 75.6982 115.323 76.7837 114.299L78.9993 113.947L81.692 111.354H86.0342L87.5231 112.776C90.3024 113.263 90.7799 113.104 93.1673 115.968L92.0825 124.872L91.8119 126.097L91.8127 127.758L92.5007 128.523C92.7485 128.798 92.9286 129.128 93.0266 129.485C93.1246 129.842 93.1378 130.217 93.0651 130.58L92.9746 131.033C93.6842 131.337 94.3613 136.739 94.5231 137.494L94.7648 138.621C94.9715 138.894 96.3361 140.713 96.3361 141.21C96.3361 141.285 96.281 141.357 96.1627 141.437C95.2327 142.066 87.0919 143.733 84.817 142.823C82.3937 141.854 76.475 144.427 76.475 144.427Z" fill="#E6E6E6"/>
<path id="Vector_22" d="M67.7737 118.007L69.6829 120.341C70.4015 121.219 71.2867 121.947 72.2877 122.483C73.2887 123.018 74.3856 123.35 75.5155 123.46C76.2156 123.525 76.9202 123.394 77.5495 123.08C78.1788 122.766 78.7077 122.283 79.0766 121.685C79.5712 120.87 79.7379 119.898 79.543 118.965C79.3481 118.032 78.8061 117.208 78.0267 116.659C75.6615 114.997 74.3712 112.422 72.5117 113.257L72.1117 112.275L66.869 108.04L62.5721 111.726L67.7737 118.007Z" fill="#E6E6E6"/>
<path id="Vector_23" d="M104.732 110.282L100.575 106.439L97.3326 108.503L96.8964 109.469C95.0692 108.566 91.5303 113.065 89.105 114.638C88.3058 115.157 87.7336 115.961 87.5042 116.886C87.2748 117.811 87.4053 118.788 87.8693 119.621C88.2158 120.233 88.7264 120.735 89.3437 121.072C89.9609 121.409 90.6601 121.566 91.3622 121.527C92.4953 121.459 93.6038 121.168 94.624 120.67C95.6441 120.172 96.5558 119.478 97.3064 118.626L99.301 116.365L104.732 110.282Z" fill="#E6E6E6"/>
<path id="Vector_24" d="M83.5701 110.101C86.2334 110.101 88.3925 107.942 88.3925 105.28C88.3925 102.617 86.2334 100.459 83.5701 100.459C80.9068 100.459 78.7477 102.617 78.7477 105.28C78.7477 107.942 80.9068 110.101 83.5701 110.101Z" fill="#FFB6B6"/>
<path id="Vector_25" d="M80.071 108.678C80.0287 108.641 79.9888 108.602 79.9475 108.564C79.946 108.567 79.9458 108.571 79.9442 108.575L80.071 108.678Z" fill="#2F2E41"/>
<path id="Vector_26" d="M88.097 103.472C88.0713 103.456 88.0488 103.44 88.0232 103.427C87.7062 103.177 87.313 103.045 86.9098 103.051C86.5248 103.1 86.2072 103.375 85.8382 103.484C85.0457 103.715 84.2468 103.151 83.4254 103.093H83.4062C83.1445 103.077 82.8822 103.112 82.6342 103.197C82.3861 103.282 82.1572 103.415 81.9606 103.588C81.764 103.761 81.6034 103.972 81.4881 104.207C81.3728 104.442 81.305 104.698 81.2886 104.96C81.2726 105.226 81.3079 105.492 81.2758 105.755C81.267 105.889 81.2255 106.018 81.155 106.131C81.0845 106.245 80.9871 106.339 80.8715 106.406C80.5089 106.57 80.0213 106.326 79.7132 106.58C79.4405 106.807 79.54 107.25 79.7036 107.568C79.8946 107.835 79.9886 108.16 79.9699 108.488C79.9639 108.514 79.9564 108.54 79.9475 108.565C79.2049 107.874 78.6156 107.034 78.2176 106.101C77.8197 105.168 77.6221 104.162 77.6374 103.148C77.6246 102.701 77.7169 102.257 77.9069 101.852C78.0024 101.65 78.1465 101.475 78.3262 101.342C78.5059 101.21 78.7157 101.124 78.9368 101.092C79.3154 101.06 79.7068 101.23 80.0662 101.108C80.509 100.96 80.695 100.45 80.9261 100.04C81.2109 99.5501 81.625 99.1485 82.123 98.8786C82.621 98.6087 83.1837 98.4811 83.7495 98.5097C84.1565 98.5496 84.5585 98.6302 84.9495 98.7502L85.7131 98.9587C86.0043 99.0272 86.2873 99.1273 86.5569 99.257C86.9511 99.4834 87.283 99.8041 87.5226 100.19C87.726 100.501 87.8868 100.838 88.0007 101.191C87.5777 101.213 87.1537 101.198 86.7333 101.146C87.2146 101.444 87.6991 101.743 88.1804 102.041C88.2374 102.519 88.2092 103.003 88.097 103.472Z" fill="#2F2E41"/>
<g id="Group" opacity="0.2">
<path id="Vector_27" d="M0 63.5241C0.0947202 63.3986 0.193989 63.2779 0.290532 63.1543L0.29578 63.105L0 63.5241Z" fill="black"/>
<path id="Vector_28" d="M164.711 64.8465C164.179 66.1116 163.25 67.1696 162.064 67.8614C160.879 68.5533 159.5 68.8414 158.137 68.6826C157.783 68.64 157.433 68.5681 157.091 68.4677C153.34 67.3515 149.59 66.3251 145.842 65.3885C140.939 64.1569 136.037 63.0738 131.134 62.1394C127.037 61.3568 122.94 60.6779 118.843 60.1027C113.937 59.4131 109.033 58.8721 104.132 58.4797C100.035 58.1493 95.9364 57.9237 91.8371 57.8029C86.9345 57.6522 82.0331 57.6522 77.1327 57.8029C73.0355 57.9248 68.9372 58.1504 64.8379 58.4797C59.9354 58.871 55.0328 59.412 50.1303 60.1027C46.0331 60.68 41.9348 61.3589 37.8355 62.1394C32.9329 63.0728 28.0304 64.1558 23.1279 65.3885C19.3772 66.3283 15.6287 67.3547 11.8822 68.4677C11.5401 68.5681 11.1903 68.64 10.8363 68.6826C9.94846 68.7865 9.04869 68.7013 8.19617 68.4326C7.34365 68.1639 6.55771 67.7178 5.89002 67.1236C5.22234 66.5295 4.68806 65.8007 4.32233 64.9853C3.95659 64.1699 3.76769 63.2864 3.76805 62.3928V59.4291C11.0031 52.8891 21.2381 49.858 31.1073 48.8252C42.8439 47.5968 54.7697 48.6456 66.4421 46.904C75.9584 45.483 85.4137 42.2083 94.9685 43.3469C103.294 44.3348 110.882 48.6007 119.093 50.3071C129.392 52.4465 140.266 50.4803 150.472 53.0238C154.473 54.0181 158.393 55.7662 161.252 58.7331C162.908 60.442 164.099 62.5468 164.711 64.8465Z" fill="black"/>
</g>
<path id="Vector_29" d="M84.102 131.733C87.5064 131.733 90.2663 128.974 90.2663 125.571C90.2663 122.168 87.5064 119.409 84.102 119.409C80.6976 119.409 77.9377 122.168 77.9377 125.571C77.9377 128.974 80.6976 131.733 84.102 131.733Z" fill="#6C63FF"/>
<path id="Vector_30" d="M83.2611 128.778C83.1546 128.778 83.0496 128.753 82.9544 128.706C82.8592 128.658 82.7764 128.589 82.7126 128.504L81.0309 126.262C80.9766 126.19 80.9371 126.108 80.9146 126.021C80.892 125.934 80.887 125.843 80.8996 125.754C80.9123 125.664 80.9424 125.578 80.9883 125.501C81.0342 125.423 81.095 125.356 81.1671 125.301C81.2393 125.247 81.3214 125.208 81.4087 125.186C81.4961 125.163 81.587 125.159 81.6762 125.171C81.7655 125.184 81.8513 125.215 81.9288 125.261C82.0064 125.307 82.074 125.368 82.128 125.44L83.2282 126.906L86.054 122.669C86.1549 122.518 86.3117 122.413 86.4901 122.377C86.6684 122.341 86.8536 122.378 87.0049 122.479C87.1562 122.58 87.2613 122.736 87.2969 122.915C87.3326 123.093 87.296 123.278 87.1951 123.429L83.8317 128.473C83.7708 128.564 83.689 128.639 83.593 128.692C83.4971 128.746 83.3898 128.775 83.2801 128.778L83.2611 128.778Z" fill="white"/>
<path id="Vector_31" d="M44.4867 143.483C47.0675 143.483 49.1596 141.391 49.1596 138.811C49.1596 136.232 47.0675 134.14 44.4867 134.14C41.9059 134.14 39.8138 136.232 39.8138 138.811C39.8138 141.391 41.9059 143.483 44.4867 143.483Z" fill="#E6E6E6"/>
<path id="Vector_32" d="M43.8492 141.243C43.7685 141.243 43.6889 141.224 43.6168 141.188C43.5446 141.152 43.4818 141.099 43.4334 141.035L42.1586 139.336C42.0759 139.225 42.0404 139.087 42.0599 138.95C42.0794 138.814 42.1523 138.691 42.2626 138.608C42.3728 138.525 42.5115 138.49 42.6479 138.509C42.7844 138.529 42.9075 138.602 42.9903 138.712L43.8243 139.824L45.9665 136.612C46.0042 136.554 46.0528 136.505 46.1095 136.467C46.1663 136.429 46.2301 136.402 46.2972 136.388C46.3643 136.375 46.4334 136.375 46.5006 136.388C46.5678 136.401 46.6317 136.427 46.6887 136.465C46.7456 136.503 46.7945 136.552 46.8326 136.609C46.8706 136.666 46.897 136.73 46.9103 136.797C46.9235 136.864 46.9234 136.933 46.9099 137C46.8964 137.067 46.8697 137.131 46.8314 137.188L44.2818 141.011C44.2356 141.08 44.1736 141.138 44.1009 141.178C44.0281 141.218 43.9468 141.24 43.8637 141.243L43.8492 141.243Z" fill="white"/>
<path id="Vector_33" d="M53.4859 143.483C56.0667 143.483 58.1589 141.391 58.1589 138.811C58.1589 136.232 56.0667 134.14 53.4859 134.14C50.9051 134.14 48.813 136.232 48.813 138.811C48.813 141.391 50.9051 143.483 53.4859 143.483Z" fill="#E6E6E6"/>
<path id="Vector_34" d="M52.8484 141.243C52.7677 141.243 52.6882 141.224 52.616 141.188C52.5438 141.152 52.481 141.099 52.4326 141.035L51.1578 139.336C51.0751 139.225 51.0396 139.087 51.0591 138.95C51.0786 138.814 51.1515 138.691 51.2618 138.608C51.3721 138.525 51.5107 138.49 51.6472 138.509C51.7836 138.529 51.9068 138.602 51.9895 138.712L52.8235 139.824L54.9657 136.612C55.0034 136.554 55.052 136.505 55.1088 136.467C55.1655 136.429 55.2293 136.402 55.2964 136.388C55.3635 136.375 55.4326 136.375 55.4998 136.388C55.567 136.401 55.6309 136.427 55.6879 136.465C55.7448 136.503 55.7938 136.552 55.8318 136.609C55.8698 136.666 55.8962 136.73 55.9095 136.797C55.9228 136.864 55.9226 136.933 55.9091 137C55.8956 137.067 55.8689 137.131 55.8307 137.188L53.281 141.011C53.2349 141.08 53.1728 141.138 53.1001 141.178C53.0273 141.218 52.946 141.24 52.8629 141.243L52.8484 141.243Z" fill="white"/>
<path id="Vector_35" d="M48.8647 135.945C51.4455 135.945 53.5376 133.854 53.5376 131.274C53.5376 128.694 51.4455 126.602 48.8647 126.602C46.2839 126.602 44.1918 128.694 44.1918 131.274C44.1918 133.854 46.2839 135.945 48.8647 135.945Z" fill="#E6E6E6"/>
<path id="Vector_36" d="M48.2272 133.705C48.1465 133.705 48.0669 133.686 47.9948 133.65C47.9226 133.614 47.8598 133.562 47.8114 133.497L46.5366 131.798C46.4539 131.688 46.4184 131.549 46.4379 131.413C46.4574 131.276 46.5303 131.153 46.6406 131.071C46.7509 130.988 46.8895 130.952 47.0259 130.972C47.1624 130.991 47.2856 131.064 47.3683 131.174L48.2023 132.286L50.3444 129.074C50.4212 128.96 50.54 128.881 50.6749 128.854C50.8097 128.828 50.9496 128.856 51.0639 128.932C51.1783 129.008 51.2578 129.126 51.2851 129.261C51.3123 129.396 51.2851 129.536 51.2095 129.65L48.6598 133.474C48.6136 133.543 48.5516 133.6 48.4789 133.64C48.4061 133.681 48.3248 133.703 48.2417 133.705L48.2272 133.705Z" fill="white"/>
<path id="Vector_37" d="M62.377 131.594L61.687 131.663L58.2819 140.659H39.797L36.3919 131.663L35.7018 131.594C35.4816 131.572 35.2591 131.596 35.0488 131.665C34.8385 131.734 34.6451 131.847 34.481 131.995C34.3168 132.144 34.1856 132.325 34.0958 132.527C34.0061 132.73 33.9597 132.949 33.9597 133.17V153.562C33.9597 154.358 34.1165 155.147 34.4213 155.882C34.726 156.618 35.1727 157.286 35.7358 157.849C36.299 158.412 36.9675 158.858 37.7032 159.163C38.439 159.468 39.2276 159.624 40.0239 159.624H58.0549C58.8513 159.624 59.6399 159.468 60.3756 159.163C61.1114 158.858 61.7799 158.412 62.343 157.849C62.9061 157.286 63.3528 156.618 63.6576 155.882C63.9623 155.147 64.1192 154.358 64.1192 153.562V133.17C64.1192 132.949 64.0728 132.73 63.983 132.527C63.8932 132.325 63.762 132.144 63.5979 131.995C63.4338 131.847 63.2403 131.734 63.03 131.665C62.8198 131.596 62.5973 131.572 62.377 131.594Z" fill="#F2F2F2"/>
<path id="Vector_38" d="M88.4322 111.23C88.2042 110.559 87.3243 110.433 86.6157 110.435C85.0357 110.439 83.4577 110.506 81.8814 110.636L82.0394 110.454C81.6207 110.277 81.1597 110.225 80.7122 110.305C80.2774 110.428 79.92 110.927 80.1165 111.334C80.264 111.64 80.6763 111.834 80.6467 112.172C80.5965 112.744 79.4888 112.554 79.3164 113.102C79.2928 113.211 79.3034 113.324 79.3469 113.427C79.3903 113.529 79.4645 113.616 79.5591 113.674C79.751 113.788 79.9662 113.856 80.1885 113.874C82.5332 114.214 84.9264 113.906 87.1081 112.982C87.4894 112.843 87.8373 112.626 88.1292 112.345C88.2733 112.202 88.3771 112.024 88.4303 111.828C88.4836 111.632 88.4842 111.426 88.4322 111.23Z" fill="#E6E6E6"/>
</g>
</svg>
